
<svg width="25" height="25" viewBox="0 0 25 25" fill="none" xmlns="http://www.w3.org/2000/svg">
<path d="M1.78571 0H0V23.2143C0 23.6879 0.188137 24.1421 0.523023 24.477C0.85791 24.8119 1.31211 25 1.78571 25H25V23.2143H1.78571V0Z" fill="#00CC99"/>
<path d="M25 6.25H18.75V8.03571H21.9553L15.1786 14.8125L11.3482 10.9732C11.2652 10.8895 11.1664 10.8231 11.0576 10.7778C10.9488 10.7324 10.8321 10.7091 10.7143 10.7091C10.5964 10.7091 10.4797 10.7324 10.3709 10.7778C10.2621 10.8231 10.1633 10.8895 10.0803 10.9732L3.57141 17.4911L4.83034 18.75L10.7143 12.8661L14.5446 16.7054C14.6276 16.789 14.7264 16.8555 14.8352 16.9008C14.944 16.9461 15.0607 16.9695 15.1786 16.9695C15.2964 16.9695 15.4131 16.9461 15.5219 16.9008C15.6307 16.8555 15.7295 16.789 15.8125 16.7054L23.2143 9.29464V12.5H25V6.25Z" fill="#00CC99"/>
</svg>
