<svg width="30" height="30" viewBox="0 0 30 30" fill="none" xmlns="http://www.w3.org/2000/svg">
<path d="M7.97614 2.25C7.39921 2.25 6.84591 2.48705 6.43796 2.90901C6.03001 3.33097 5.80083 3.90326 5.80083 4.5C5.80083 5.09674 6.03001 5.66903 6.43796 6.09099C6.84591 6.51295 7.39921 6.75 7.97614 6.75C8.55307 6.75 9.10637 6.51295 9.51432 6.09099C9.92227 5.66903 10.1515 5.09674 10.1515 4.5C10.1515 3.90326 9.92227 3.33097 9.51432 2.90901C9.10637 2.48705 8.55307 2.25 7.97614 2.25ZM3.62552 4.5C3.62552 3.30653 4.08389 2.16193 4.89979 1.31802C5.71569 0.474106 6.82228 0 7.97614 0C9.13 0 10.2366 0.474106 11.0525 1.31802C11.8684 2.16193 12.3268 3.30653 12.3268 4.5C12.3268 5.69347 11.8684 6.83807 11.0525 7.68198C10.2366 8.52589 9.13 9 7.97614 9C6.82228 9 5.71569 8.52589 4.89979 7.68198C4.08389 6.83807 3.62552 5.69347 3.62552 4.5ZM2.56397 10.5C1.14566 10.5 0 11.6865 0 13.152V13.692C0 14.0025 8.64391e-08 15.804 1.01515 17.5545C1.80986 18.9195 3.1571 20.145 5.32951 20.694C5.62705 19.8759 6.16585 19.1753 6.86963 18.6915C4.54495 18.435 3.44569 17.367 2.88156 16.3965C2.17966 15.1875 2.17531 13.9005 2.17531 13.6875V13.152C2.17531 12.93 2.34934 12.75 2.56397 12.75H8.74475C8.84055 11.9568 9.0896 11.1916 9.47711 10.5H2.56397ZM19.527 10.5C19.9055 11.178 20.1608 11.9385 20.2579 12.75H26.4402C26.6548 12.75 26.8288 12.93 26.8288 13.152V13.6875C26.8288 13.9005 26.8245 15.1875 26.1226 16.395C25.5585 17.367 24.4592 18.435 22.1345 18.6915C22.8306 19.1715 23.3759 19.8705 23.6746 20.694C25.847 20.145 27.1943 18.9195 27.9876 17.5545C29.0041 15.804 29.0042 14.004 29.0042 13.6905V13.1505C29.0041 11.688 27.857 10.5 26.4402 10.5H19.527ZM18.8527 4.5C18.8527 3.90326 19.0819 3.33097 19.4898 2.90901C19.8978 2.48705 20.4511 2.25 21.028 2.25C21.6049 2.25 22.1582 2.48705 22.5662 2.90901C22.9741 3.33097 23.2033 3.90326 23.2033 4.5C23.2033 5.09674 22.9741 5.66903 22.5662 6.09099C22.1582 6.51295 21.6049 6.75 21.028 6.75C20.4511 6.75 19.8978 6.51295 19.4898 6.09099C19.0819 5.66903 18.8527 5.09674 18.8527 4.5ZM21.028 0C19.8742 0 18.7676 0.474106 17.9517 1.31802C17.1358 2.16193 16.6774 3.30653 16.6774 4.5C16.6774 5.69347 17.1358 6.83807 17.9517 7.68198C18.7676 8.52589 19.8742 9 21.028 9C22.1819 9 23.2885 8.52589 24.1044 7.68198C24.9203 6.83807 25.3786 5.69347 25.3786 4.5C25.3786 3.30653 24.9203 2.16193 24.1044 1.31802C23.2885 0.474106 22.1819 0 21.028 0ZM14.5021 11.25C14.2164 11.25 13.9335 11.3082 13.6696 11.4213C13.4057 11.5343 13.1659 11.7001 12.9639 11.909C12.7619 12.1179 12.6017 12.366 12.4923 12.639C12.383 12.9119 12.3268 13.2045 12.3268 13.5C12.3268 13.7955 12.383 14.0881 12.4923 14.361C12.6017 14.634 12.7619 14.8821 12.9639 15.091C13.1659 15.2999 13.4057 15.4657 13.6696 15.5787C13.9335 15.6918 14.2164 15.75 14.5021 15.75C15.079 15.75 15.6323 15.5129 16.0403 15.091C16.4482 14.669 16.6774 14.0967 16.6774 13.5C16.6774 12.9033 16.4482 12.331 16.0403 11.909C15.6323 11.4871 15.079 11.25 14.5021 11.25ZM10.1515 13.5C10.1515 12.3065 10.6098 11.1619 11.4257 10.318C12.2416 9.4741 13.3482 9 14.5021 9C15.6559 9 16.7625 9.4741 17.5784 10.318C18.3943 11.1619 18.8527 12.3065 18.8527 13.5C18.8527 14.6935 18.3943 15.8381 17.5784 16.682C16.7625 17.5259 15.6559 18 14.5021 18C13.3482 18 12.2416 17.5259 11.4257 16.682C10.6098 15.8381 10.1515 14.6935 10.1515 13.5ZM6.52593 22.152C6.52593 20.685 7.67305 19.5 9.0899 19.5H19.9142C21.3311 19.5 22.4782 20.6865 22.4782 22.152V22.692C22.4782 23.0025 22.4782 24.804 21.4631 26.5545C20.3856 28.4055 18.2915 30 14.5021 30C10.7127 30 8.61713 28.4055 7.54108 26.5545C6.52593 24.804 6.52593 23.004 6.52593 22.6905V22.152ZM9.0899 21.75C9.03886 21.75 8.98832 21.7604 8.94117 21.7806C8.89401 21.8008 8.85117 21.8304 8.81508 21.8677C8.77899 21.9051 8.75036 21.9494 8.73083 21.9982C8.7113 22.0469 8.70124 22.0992 8.70124 22.152V22.6875C8.70124 22.9005 8.7056 24.1875 9.4075 25.395C10.0543 26.5095 11.4044 27.75 14.5021 27.75C17.5997 27.75 18.9499 26.5095 19.5967 25.395C20.2986 24.1875 20.3029 22.9005 20.3029 22.6875V22.152C20.3029 22.0454 20.262 21.9431 20.1891 21.8677C20.1162 21.7924 20.0173 21.75 19.9142 21.75H9.0899Z" fill="#666666"/>
</svg>
