<svg width="50" height="51" viewBox="0 0 50 51" fill="none" xmlns="http://www.w3.org/2000/svg">
<path d="M25 9.74587C25.5525 9.74587 26.0824 9.52638 26.4731 9.13568C26.8638 8.74498 27.0833 8.21508 27.0833 7.66254C27.0833 7.11001 26.8638 6.5801 26.4731 6.1894C26.0824 5.7987 25.5525 5.57921 25 5.57921C24.4475 5.57921 23.9176 5.7987 23.5269 6.1894C23.1362 6.5801 22.9167 7.11001 22.9167 7.66254C22.9167 8.21508 23.1362 8.74498 23.5269 9.13568C23.9176 9.52638 24.4475 9.74587 25 9.74587Z" fill="white"/>
<path fill-rule="evenodd" clip-rule="evenodd" d="M24.7444 0.0472228L24.7333 0.0500003L24.7014 0.0555555L24.5861 0.0777781L24.1555 0.163889C23.7861 0.238889 23.2597 0.35 22.6305 0.493056C21.3736 0.779167 19.6861 1.19722 17.9917 1.72083C16.3139 2.23889 14.5569 2.88333 13.1944 3.6375C12.5167 4.0125 11.8667 4.45278 11.3708 4.97083C10.8778 5.48333 10.4167 6.20139 10.4167 7.10278C10.4167 9.52639 11.0972 11.3014 11.8167 12.4917C12.1708 13.0778 12.5305 13.5153 12.8139 13.8153C12.8278 13.975 12.8486 14.1542 12.8875 14.3486C13.0278 15.0792 13.3792 16.0097 14.1847 16.9139C13.8011 18.5448 13.7913 20.2414 14.156 21.8766C14.5208 23.5118 15.2506 25.0434 16.2908 26.3568C17.3311 27.6701 18.6549 28.7312 20.1632 29.4606C21.6715 30.19 23.3253 30.5689 25.0007 30.5689C26.6761 30.5689 28.3298 30.19 29.8381 29.4606C31.3464 28.7312 32.6702 27.6701 33.7105 26.3568C34.7508 25.0434 35.4806 23.5118 35.8453 21.8766C36.2101 20.2414 36.2002 18.5448 35.8167 16.9139C36.6208 16.0097 36.9722 15.0806 37.1125 14.3486C37.1514 14.1542 37.1736 13.975 37.1861 13.8153C37.5644 13.4106 37.8987 12.9669 38.1833 12.4917C38.9042 11.3014 39.5833 9.52639 39.5833 7.10278C39.5833 6.20139 39.1222 5.48333 38.6292 4.97083C38.1333 4.45278 37.4833 4.0125 36.8055 3.6375C35.443 2.88333 33.6861 2.23889 32.0069 1.72083C30.4768 1.25445 28.9299 0.844906 27.3694 0.493056C26.7196 0.344971 26.0677 0.206069 25.4139 0.0763893L25.2986 0.0555555L25.2667 0.0500003L25.2555 0.0472228L25 0L24.7444 0.0472228ZM25 17.3847C28.0653 17.3847 30.1236 16.9875 31.5 16.4708C32.6653 16.0333 33.3444 15.5111 33.7361 15.0708C33.8792 14.9111 33.9917 14.7556 34.0805 14.6069H15.9194C16.0083 14.7556 16.1208 14.9125 16.2625 15.0708C16.6569 15.5111 17.3347 16.0333 18.4986 16.4708C19.8764 16.9875 21.9347 17.3847 25 17.3847ZM35.2389 11.8292H14.7611C14.5482 11.5889 14.358 11.3295 14.193 11.0542C13.7167 10.2667 13.2 8.99306 13.1944 7.13194C13.2408 7.04278 13.3019 6.96203 13.375 6.89306C13.6 6.65833 13.9805 6.37639 14.5403 6.06806C15.6514 5.45278 17.193 4.875 18.8125 4.37361C20.2753 3.9288 21.7541 3.53825 23.2458 3.20278C23.8289 3.07007 24.4136 2.94506 25 2.82778C25.0792 2.84167 25.1764 2.8625 25.2889 2.88472C25.6417 2.95695 26.1472 3.06528 26.7542 3.20278C27.9708 3.47917 29.5833 3.87917 31.1875 4.375C32.8069 4.875 34.3486 5.45278 35.4597 6.06806C36.0194 6.37639 36.4 6.65833 36.6264 6.89306C36.7514 7.025 36.793 7.10278 36.8055 7.13194C36.8 8.99306 36.2833 10.2667 35.8055 11.0542C35.6413 11.3297 35.4516 11.5891 35.2389 11.8292ZM16.6667 19.4681C16.6667 19.2181 16.6778 18.9708 16.6986 18.7264C18.5569 19.5972 21.218 20.1625 25 20.1625C28.2569 20.1625 30.6792 19.7458 32.475 19.0722C32.7667 18.9639 33.0417 18.8472 33.3014 18.725C33.3997 19.8451 33.2704 20.9736 32.9211 22.0425C32.5718 23.1113 32.0098 24.0984 31.2689 24.9443C30.5281 25.7902 29.6237 26.4774 28.6102 26.9645C27.5968 27.4517 26.4952 27.7287 25.3718 27.7789C24.2485 27.829 23.1266 27.6514 22.0738 27.2565C21.0209 26.8617 20.0589 26.2578 19.2455 25.4813C18.4322 24.7049 17.7845 23.7718 17.3412 22.7384C16.898 21.705 16.6686 20.5925 16.6667 19.4681Z" fill="white"/>
<path d="M37.5 38.9125C38.4264 39.8389 40.2778 40.7639 40.2778 40.7639C40.2778 40.7639 39.3083 44.4681 37.5 44.4681C35.6917 44.4681 34.7222 40.7639 34.7222 40.7639C34.7222 40.7639 36.5736 39.8389 37.5 38.9125Z" fill="white"/>
<path fill-rule="evenodd" clip-rule="evenodd" d="M20.1389 34.7459C20.1389 34.0092 20.4315 33.3026 20.9525 32.7817C21.4734 32.2608 22.18 31.9681 22.9167 31.9681H27.0833C27.82 31.9681 28.5266 32.2608 29.0475 32.7817C29.5685 33.3026 29.8611 34.0092 29.8611 34.7459V36.6653C29.8611 37.1176 29.7506 37.563 29.5393 37.9628C29.328 38.3627 29.0222 38.7049 28.6486 38.9598L28.8056 39.7459L33.5722 33.9584C33.7329 33.7632 33.9438 33.6155 34.1821 33.5313C34.4205 33.4471 34.6774 33.4296 34.925 33.4806C38.4861 34.2195 42.1292 35.3389 44.9181 36.875C47.6153 38.3612 50 40.5181 50 43.4931V48.6348C50 49.0031 49.8537 49.3564 49.5932 49.6169C49.3327 49.8773 48.9795 50.0236 48.6111 50.0236H1.38889C1.02053 50.0236 0.667264 49.8773 0.406796 49.6169C0.146329 49.3564 0 49.0031 0 48.6348V43.4931C0 40.5348 2.43056 38.3917 5.12778 36.9181C7.92778 35.3861 11.5722 34.2584 15.0903 33.5098C15.339 33.457 15.5975 33.4735 15.8375 33.5575C16.0775 33.6415 16.2899 33.7897 16.4514 33.9861L21.2153 39.7723L21.3653 38.9695C20.9875 38.7152 20.6781 38.3719 20.4643 37.9698C20.2504 37.5678 20.1387 37.1193 20.1389 36.6639V34.7459ZM25.7222 38.4903L26.5264 42.5139L25 44.3667L23.5222 42.5723L24.2819 38.4709C24.337 38.1745 24.2941 37.8683 24.1598 37.5985C24.0255 37.3287 23.8071 37.1098 23.5375 36.975L22.9167 36.6653V34.7459H27.0833V36.6653L26.4625 36.9764C26.19 37.1125 25.9697 37.3344 25.8357 37.608C25.7017 37.8815 25.6613 38.1916 25.7208 38.4903H25.7222ZM26.2264 47.2459L35.1764 36.3778C38.3153 37.0806 41.325 38.0681 43.5764 39.3084C46.1167 40.707 47.2222 42.1528 47.2222 43.4931V47.2459H26.2278H26.2264ZM14.8458 36.4084L23.7722 47.2459H2.77778V43.4931C2.77778 42.1959 3.88889 40.7612 6.45972 39.3542C8.72778 38.1139 11.7431 37.1209 14.8486 36.4084H14.8458Z" fill="white"/>
</svg>
