<svg width="25" height="25" viewBox="0 0 25 25" fill="none" xmlns="http://www.w3.org/2000/svg">
<path fill-rule="evenodd" clip-rule="evenodd" d="M5.03225 10.3722C5.03225 10.3722 5.59648 10.2962 6.41517 10.0777C8.5739 9.50168 12.5 7.93829 12.5 4.17814C12.5 3.6295 12.3919 3.08624 12.182 2.57937C11.972 2.07249 11.6643 1.61194 11.2764 1.22399C10.8884 0.836049 10.4279 0.528315 9.92098 0.318361C9.41411 0.108408 8.87084 0.000345756 8.32221 0.000345756H4.23154C3.67843 -0.00677048 3.12941 0.0960255 2.61634 0.302769C2.10327 0.509513 1.63636 0.816088 1.24271 1.20471C0.849061 1.59332 0.536505 2.05625 0.323178 2.56661C0.10985 3.07698 0 3.62463 0 4.17779C0 4.73095 0.10985 5.2786 0.323178 5.78897C0.536505 6.29934 0.849061 6.76226 1.24271 7.15088C1.63636 7.5395 2.10327 7.84607 2.61634 8.05282C3.12941 8.25956 3.67843 8.36236 4.23154 8.35524H5.03225V10.3722ZM6.41517 6.97232H4.23154C3.86086 6.97815 3.49272 6.91018 3.14856 6.77236C2.8044 6.63454 2.49111 6.42962 2.22691 6.16955C1.96271 5.90948 1.75289 5.59944 1.60968 5.25749C1.46646 4.91554 1.3927 4.54852 1.3927 4.17779C1.3927 3.80707 1.46646 3.44004 1.60968 3.0981C1.75289 2.75615 1.96271 2.44611 2.22691 2.18604C2.49111 1.92596 2.8044 1.72105 3.14856 1.58323C3.49272 1.44541 3.86086 1.37743 4.23154 1.38326H8.32221C8.68924 1.38326 9.05267 1.45555 9.39176 1.59601C9.73085 1.73647 10.039 1.94233 10.2985 2.20186C10.558 2.46139 10.7639 2.7695 10.9043 3.10859C11.0448 3.44768 11.1171 3.81111 11.1171 4.17814C11.1171 5.96418 9.86693 7.15348 8.16525 7.97425C7.60045 8.24259 7.01525 8.46571 6.41517 8.6415V6.97232ZM5.93114 17.9783C7.45927 17.9783 8.69698 16.7406 8.69698 15.2124C8.69698 13.6843 7.45927 12.4466 5.93114 12.4466C4.40302 12.4466 3.16531 13.6843 3.16531 15.2124C3.16531 16.7406 4.40302 17.9783 5.93114 17.9783ZM7.31406 15.2124C7.31406 15.5792 7.16836 15.931 6.90901 16.1903C6.64967 16.4497 6.29792 16.5954 5.93114 16.5954C5.56437 16.5954 5.21262 16.4497 4.95327 16.1903C4.69393 15.931 4.54823 15.5792 4.54823 15.2124C4.54823 14.8457 4.69393 14.4939 4.95327 14.2346C5.21262 13.9752 5.56437 13.8295 5.93114 13.8295C6.29792 13.8295 6.64967 13.9752 6.90901 14.2346C7.16836 14.4939 7.31406 14.8457 7.31406 15.2124ZM0.0537462 22.3116C0.0537462 20.3493 3.96948 19.3612 5.93114 19.3612C7.89281 19.3612 11.8085 20.35 11.8085 22.3116V24.8929H0.0537462V22.3116ZM1.43666 23.5099V22.3116C1.43666 22.3047 1.43666 22.2909 1.45464 22.2563C1.47677 22.2135 1.52724 22.1381 1.63649 22.0371C1.86398 21.8262 2.24498 21.596 2.77256 21.3837C3.83049 20.9585 5.12352 20.7441 5.93114 20.7441C6.73808 20.7441 8.03249 20.9585 9.08973 21.3837C9.61662 21.596 9.9983 21.8262 10.2258 22.0371C10.335 22.1381 10.3855 22.2135 10.4076 22.2556C10.4256 22.2902 10.4256 22.3054 10.4256 22.3109V23.5099H1.43666ZM21.8347 15.2124C21.8347 16.7406 20.597 17.9783 19.0689 17.9783C17.5407 17.9783 16.303 16.7406 16.303 15.2124C16.303 13.6843 17.5407 12.4466 19.0689 12.4466C20.597 12.4466 21.8347 13.6843 21.8347 15.2124ZM19.0689 16.5954C19.4356 16.5954 19.7874 16.4497 20.0467 16.1903C20.3061 15.931 20.4518 15.5792 20.4518 15.2124C20.4518 14.8457 20.3061 14.4939 20.0467 14.2346C19.7874 13.9752 19.4356 13.8295 19.0689 13.8295C18.7021 13.8295 18.3503 13.9752 18.091 14.2346C17.8316 14.4939 17.6859 14.8457 17.6859 15.2124C17.6859 15.5792 17.8316 15.931 18.091 16.1903C18.3503 16.4497 18.7021 16.5954 19.0689 16.5954ZM13.1915 22.3116C13.1915 20.3493 17.1072 19.3612 19.0689 19.3612C21.0305 19.3612 24.9463 20.35 24.9463 22.3116V24.8929H13.1915V22.3116ZM14.5744 23.5099V22.3116C14.5744 22.3047 14.5744 22.2909 14.5924 22.2563C14.6145 22.2135 14.665 22.1381 14.7735 22.0371C15.0017 21.8262 15.3834 21.596 15.9103 21.3837C16.9682 20.9585 18.2612 20.7441 19.0689 20.7441C19.8758 20.7441 21.1702 20.9585 22.2274 21.3837C22.7543 21.596 23.136 21.8262 23.3642 22.0371C23.4728 22.1381 23.5232 22.2135 23.5454 22.2556C23.5633 22.2902 23.5633 22.3054 23.5633 22.3109V23.5099H14.5744ZM19.138 10.7221C19.947 10.9766 20.5209 11.0637 20.5209 11.0637V9.0467H20.7685C21.3216 9.05381 21.8706 8.95102 22.3837 8.74428C22.8967 8.53753 23.3636 8.23096 23.7573 7.84234C24.1509 7.45372 24.4635 6.9908 24.6768 6.48043C24.8902 5.97006 25 5.42241 25 4.86925C25 4.31609 24.8902 3.76844 24.6768 3.25807C24.4635 2.7477 24.1509 2.28478 23.7573 1.89616C23.3636 1.50755 22.8967 1.20097 22.3837 0.994228C21.8706 0.787484 21.3216 0.684688 20.7685 0.691804H18.0607C16.9527 0.691804 15.8901 1.13196 15.1066 1.91545C14.3231 2.69894 13.8829 3.76158 13.8829 4.8696C13.8829 8.53156 17.1929 10.1109 19.138 10.7221ZM20.7685 7.66378H19.138V9.26312C18.6989 9.10631 18.2723 8.91678 17.8616 8.69613C16.4206 7.91409 15.2658 6.74068 15.2658 4.86891C15.266 4.12778 15.5606 3.41707 16.0847 2.89308C16.6088 2.36909 17.3196 2.07472 18.0607 2.07472H20.7685C21.1391 2.06889 21.5073 2.13686 21.8514 2.27469C22.1956 2.41251 22.5089 2.61742 22.7731 2.87749C23.0373 3.13757 23.2471 3.44761 23.3903 3.78955C23.5335 4.1315 23.6073 4.49852 23.6073 4.86925C23.6073 5.23998 23.5335 5.607 23.3903 5.94895C23.2471 6.2909 23.0373 6.60093 22.7731 6.86101C22.5089 7.12108 22.1956 7.326 21.8514 7.46382C21.5073 7.60164 21.1391 7.66961 20.7685 7.66378Z" fill="#666666"/>
</svg>
