<svg width="24" height="27" viewBox="0 0 24 27" fill="none" xmlns="http://www.w3.org/2000/svg">
<path d="M23.7262 20.9839C22.9496 20.2916 22.2696 19.4979 21.7047 18.6242C21.088 17.4182 20.7183 16.1011 20.6175 14.7503V10.7718C20.6228 8.65016 19.8532 6.59958 18.4532 5.00535C17.0533 3.41112 15.1193 2.38297 13.0148 2.11409V1.07517C13.0148 0.790016 12.9015 0.516542 12.6999 0.314909C12.4982 0.113276 12.2247 0 11.9396 0C11.6544 0 11.381 0.113276 11.1793 0.314909C10.9777 0.516542 10.8644 0.790016 10.8644 1.07517V2.1302C8.77873 2.41847 6.86817 3.45282 5.4866 5.0417C4.10504 6.63057 3.34609 8.66629 3.35034 10.7718V14.7503C3.24947 16.1011 2.87982 17.4182 2.26309 18.6242C1.70809 19.4959 1.03908 20.2895 0.273826 20.9839C0.187918 21.0594 0.119067 21.1523 0.071853 21.2564C0.0246391 21.3606 0.000144802 21.4736 0 21.5879V22.6832C0 22.8968 0.0848511 23.1017 0.235887 23.2527C0.386923 23.4037 0.591772 23.4886 0.805369 23.4886H23.1946C23.4082 23.4886 23.6131 23.4037 23.7641 23.2527C23.9151 23.1017 24 22.8968 24 22.6832V21.5879C23.9999 21.4736 23.9754 21.3606 23.9282 21.2564C23.8809 21.1523 23.8121 21.0594 23.7262 20.9839ZM1.67517 21.8779C2.42449 21.154 3.08424 20.3428 3.64027 19.4617C4.41714 18.0052 4.87041 16.3981 4.96913 14.7503V10.7718C4.93719 9.82795 5.09551 8.88731 5.43467 8.00591C5.77382 7.1245 6.28688 6.32036 6.94329 5.64137C7.59969 4.96238 8.38602 4.42242 9.25545 4.05364C10.1249 3.68487 11.0596 3.49482 12.004 3.49482C12.9484 3.49482 13.8832 3.68487 14.7526 4.05364C15.622 4.42242 16.4084 4.96238 17.0648 5.64137C17.7212 6.32036 18.2342 7.1245 18.5734 8.00591C18.9125 8.88731 19.0709 9.82795 19.0389 10.7718V14.7503C19.1376 16.3981 19.5909 18.0052 20.3678 19.4617C20.9238 20.3428 21.5836 21.154 22.3329 21.8779H1.67517Z" fill="#003366"/>
<path d="M12.0402 26.1785C12.5476 26.1668 13.0344 25.9761 13.4147 25.6401C13.7949 25.304 14.0441 24.8443 14.1181 24.3423H9.88184C9.95792 24.858 10.2187 25.3285 10.6158 25.6662C11.0128 26.004 11.519 26.1861 12.0402 26.1785Z" fill="#003366"/>
</svg>
