<svg width="30" height="31" viewBox="0 0 30 31" fill="none" xmlns="http://www.w3.org/2000/svg">
<path d="M28.0349 20.1404L25.1024 18.0458C25.5858 16.3057 25.618 14.4205 25.1024 12.5354L28.0349 10.473L25.6986 6.44493L22.4278 7.92726C21.1549 6.63827 19.5437 5.63931 17.6585 5.17205L17.3363 1.61123H12.6637L12.3415 5.17205C10.4563 5.63931 8.8451 6.63827 7.57222 7.92726L4.30142 6.44493L1.96514 10.473L4.89758 12.5354C4.38198 14.4205 4.41421 16.3057 4.89758 18.0458L1.96514 20.1404L4.30142 24.1685L7.57222 22.67C8.8451 23.9429 10.4563 24.9096 12.3415 25.4091L12.6637 29.0022H17.3363L17.6585 25.4091C19.5437 24.9096 21.1549 23.9429 22.4278 22.67L25.6986 24.1685L28.0349 20.1404ZM18.2225 0C18.6575 0 19.0281 0.322246 19.0281 0.741167L19.3181 4.02808C20.5426 4.47922 21.6383 5.13983 22.6211 5.92933L25.6019 4.52756C25.9725 4.33421 26.4397 4.46311 26.6653 4.83369L29.8878 10.473C30.1134 10.8114 29.9845 11.2786 29.63 11.5203L26.9392 13.4054C27.1487 14.6944 27.1326 15.9673 26.9392 17.208L29.63 19.0931C29.9845 19.3348 30.1134 19.802 29.8878 20.1404L26.6653 25.7797C26.4397 26.1181 25.9725 26.247 25.6019 26.0536L22.6211 24.668C21.6383 25.4575 20.5426 26.102 19.3181 26.5853L19.0281 29.8078C19.0281 30.275 18.6575 30.6134 18.2225 30.6134H11.7775C11.5639 30.6134 11.359 30.5285 11.2079 30.3774C11.0568 30.2264 10.9719 30.0214 10.9719 29.8078L10.6819 26.5853C9.45736 26.102 8.36173 25.4575 7.37887 24.668L4.3981 26.0536C4.02751 26.247 3.56026 26.1181 3.33468 25.7797L0.11222 20.1404C-0.113352 19.802 0.0155465 19.3348 0.370017 19.0931L3.06077 17.208C2.86743 15.9673 2.85131 14.6944 3.06077 13.4054L0.370017 11.5203C0.0155465 11.2786 -0.113352 10.8114 0.11222 10.473L3.33468 4.83369C3.56026 4.46311 4.02751 4.33421 4.3981 4.52756L7.37887 5.92933C8.36173 5.13983 9.45736 4.47922 10.6819 4.02808L10.9719 0.741167C10.9719 0.322246 11.3425 0 11.7775 0H18.2225ZM15 9.66739C16.4956 9.66739 17.93 10.2615 18.9876 11.3191C20.0452 12.3767 20.6393 13.8111 20.6393 15.3067C20.6393 16.8023 20.0452 18.2367 18.9876 19.2943C17.93 20.3519 16.4956 20.946 15 20.946C13.5044 20.946 12.07 20.3519 11.0124 19.2943C9.95483 18.2367 9.36069 16.8023 9.36069 15.3067C9.36069 13.8111 9.95483 12.3767 11.0124 11.3191C12.07 10.2615 13.5044 9.66739 15 9.66739ZM15 11.2786C13.9317 11.2786 12.9071 11.703 12.1517 12.4584C11.3963 13.2138 10.9719 14.2384 10.9719 15.3067C10.9719 16.375 11.3963 17.3996 12.1517 18.155C12.9071 18.9104 13.9317 19.3348 15 19.3348C16.0683 19.3348 17.0929 18.9104 17.8483 18.155C18.6037 17.3996 19.0281 16.375 19.0281 15.3067C19.0281 14.2384 18.6037 13.2138 17.8483 12.4584C17.0929 11.703 16.0683 11.2786 15 11.2786Z" fill="#003366"/>
</svg>
