<svg width="50" height="43" viewBox="0 0 50 43" fill="none" xmlns="http://www.w3.org/2000/svg">
<path d="M17.8643 7.13571C17.8643 5.24321 18.6161 3.42821 19.9543 2.09C21.2925 0.751796 23.1075 0 25 0C26.8925 0 28.7075 0.751796 30.0457 2.09C31.3839 3.42821 32.1357 5.24321 32.1357 7.13571C32.1357 9.02822 31.3839 10.8432 30.0457 12.1814C28.7075 13.5196 26.8925 14.2714 25 14.2714C23.1075 14.2714 21.2925 13.5196 19.9543 12.1814C18.6161 10.8432 17.8643 9.02822 17.8643 7.13571ZM25 3.57143C24.5319 3.57143 24.0684 3.66362 23.636 3.84274C23.2036 4.02187 22.8106 4.28441 22.4797 4.61538C22.1487 4.94636 21.8862 5.33928 21.707 5.77172C21.5279 6.20416 21.4357 6.66765 21.4357 7.13571C21.4357 7.60378 21.5279 8.06727 21.707 8.49971C21.8862 8.93215 22.1487 9.32507 22.4797 9.65605C22.8106 9.98702 23.2036 10.2496 23.636 10.4287C24.0684 10.6078 24.5319 10.7 25 10.7C25.9453 10.7 26.8519 10.3245 27.5203 9.65605C28.1888 8.98761 28.5643 8.08102 28.5643 7.13571C28.5643 6.19041 28.1888 5.28382 27.5203 4.61538C26.8519 3.94695 25.9453 3.57143 25 3.57143ZM35.7143 8.92143C35.7143 8.21792 35.8529 7.5213 36.1221 6.87134C36.3913 6.22138 36.7859 5.63081 37.2834 5.13336C37.7808 4.6359 38.3714 4.24129 39.0213 3.97207C39.6713 3.70285 40.3679 3.56429 41.0714 3.56429C41.7749 3.56429 42.4716 3.70285 43.1215 3.97207C43.7715 4.24129 44.362 4.6359 44.8595 5.13336C45.357 5.63081 45.7516 6.22138 46.0208 6.87134C46.29 7.5213 46.4286 8.21792 46.4286 8.92143C46.4286 10.3422 45.8642 11.7048 44.8595 12.7095C43.8548 13.7142 42.4922 14.2786 41.0714 14.2786C39.6506 14.2786 38.288 13.7142 37.2834 12.7095C36.2787 11.7048 35.7143 10.3422 35.7143 8.92143ZM41.0714 7.13571C40.5978 7.13571 40.1436 7.32385 39.8087 7.65874C39.4739 7.99362 39.2857 8.44783 39.2857 8.92143C39.2857 9.39503 39.4739 9.84923 39.8087 10.1841C40.1436 10.519 40.5978 10.7071 41.0714 10.7071C41.545 10.7071 41.9992 10.519 42.3341 10.1841C42.669 9.84923 42.8571 9.39503 42.8571 8.92143C42.8571 8.44783 42.669 7.99362 42.3341 7.65874C41.9992 7.32385 41.545 7.13571 41.0714 7.13571ZM8.92857 3.56429C7.50777 3.56429 6.14516 4.1287 5.1405 5.13336C4.13584 6.13802 3.57143 7.50063 3.57143 8.92143C3.57143 10.3422 4.13584 11.7048 5.1405 12.7095C6.14516 13.7142 7.50777 14.2786 8.92857 14.2786C10.3494 14.2786 11.712 13.7142 12.7166 12.7095C13.7213 11.7048 14.2857 10.3422 14.2857 8.92143C14.2857 7.50063 13.7213 6.13802 12.7166 5.13336C11.712 4.1287 10.3494 3.56429 8.92857 3.56429ZM7.14286 8.92143C7.14286 8.44783 7.331 7.99362 7.66588 7.65874C8.00077 7.32385 8.45497 7.13571 8.92857 7.13571C9.40217 7.13571 9.85638 7.32385 10.1913 7.65874C10.5261 7.99362 10.7143 8.44783 10.7143 8.92143C10.7143 9.39503 10.5261 9.84923 10.1913 10.1841C9.85638 10.519 9.40217 10.7071 8.92857 10.7071C8.45497 10.7071 8.00077 10.519 7.66588 10.1841C7.331 9.84923 7.14286 9.39503 7.14286 8.92143ZM11.6714 17.85C11.0429 18.9352 10.7127 20.1674 10.7143 21.4214H3.57143V30.35C3.57114 31.2383 3.79177 32.1128 4.21345 32.8947C4.63514 33.6766 5.24464 34.3413 5.9871 34.8291C6.72956 35.3169 7.58166 35.6124 8.4667 35.6889C9.35174 35.7655 10.2419 35.6208 11.0571 35.2679C11.3214 36.45 11.7357 37.5786 12.2714 38.6321C10.9159 39.1794 9.44682 39.3856 7.99306 39.2324C6.5393 39.0792 5.14539 38.5715 3.93372 37.7537C2.72206 36.9359 1.72971 35.8332 1.04383 34.5423C0.35795 33.2514 -0.000485885 31.8118 4.94333e-07 30.35V21.4214C4.94333e-07 20.4742 0.376275 19.5658 1.04605 18.896C1.71582 18.2263 2.62423 17.85 3.57143 17.85H11.6714ZM37.7286 38.6321C39.0841 39.1794 40.5532 39.3856 42.0069 39.2324C43.4607 39.0792 44.8546 38.5715 46.0663 37.7537C47.2779 36.9359 48.2703 35.8332 48.9562 34.5423C49.6421 33.2514 50.0005 31.8118 50 30.35V21.4214C50 20.4742 49.6237 19.5658 48.954 18.896C48.2842 18.2263 47.3758 17.85 46.4286 17.85H38.3286C38.9357 18.9 39.2857 20.1179 39.2857 21.4214H46.4286V30.35C46.4289 31.2383 46.2082 32.1128 45.7865 32.8947C45.3649 33.6766 44.7554 34.3413 44.0129 34.8291C43.2704 35.3169 42.4183 35.6124 41.5333 35.6889C40.6483 35.7655 39.7581 35.6208 38.9429 35.2679C38.675 36.45 38.2643 37.5786 37.7286 38.6321ZM17.8571 17.8464C16.9099 17.8464 16.0015 18.2227 15.3318 18.8925C14.662 19.5623 14.2857 20.4707 14.2857 21.4179V32.1357C14.2857 34.9773 15.4145 37.7025 17.4239 39.7119C19.4332 41.7212 22.1584 42.85 25 42.85C27.8416 42.85 30.5668 41.7212 32.5761 39.7119C34.5855 37.7025 35.7143 34.9773 35.7143 32.1357V21.4214C35.7143 20.4742 35.338 19.5658 34.6682 18.896C33.9985 18.2263 33.0901 17.85 32.1429 17.85H17.8571V17.8464ZM17.8571 21.4179H32.1429V32.1357C32.1429 34.0301 31.3903 35.8469 30.0508 37.1865C28.7112 38.526 26.8944 39.2786 25 39.2786C23.1056 39.2786 21.2888 38.526 19.9492 37.1865C18.6097 35.8469 17.8571 34.0301 17.8571 32.1357V21.4214V21.4179Z" fill="white"/>
</svg>
