<svg width="30" height="30" viewBox="0 0 30 30" fill="none" xmlns="http://www.w3.org/2000/svg">
<path d="M29.736 18.2359C29.6203 18.1204 29.4755 18.0386 29.3168 17.9992C29.1582 17.9598 28.9919 17.9643 28.8357 18.0123C26.4948 18.7198 24.0059 18.7789 21.6341 18.1834C19.2622 17.5878 17.0965 16.3599 15.3675 14.6305C13.6386 12.9011 12.4112 10.735 11.8163 8.36301C11.2214 5.99104 11.2812 3.5021 11.9893 1.16144C12.0366 1.00535 12.0407 0.839344 12.0009 0.681151C11.9612 0.522958 11.8793 0.378522 11.7639 0.26327C11.6485 0.148019 11.504 0.0662818 11.3457 0.0267902C11.1875 -0.0127013 11.0215 -0.00846365 10.8654 0.0390503C7.7617 0.991268 5.03716 2.89776 3.07924 5.48744C0.859762 8.4346 -0.220445 12.0843 0.0374613 15.7647C0.295368 19.4451 1.87403 22.9085 4.48284 25.5173C7.09166 28.1261 10.555 29.7048 14.2354 29.9627C17.9158 30.2206 21.5655 29.1404 24.5127 26.9209C27.1024 24.963 29.0089 22.2384 29.9611 19.1347C30.0085 18.9785 30.0127 18.8124 29.973 18.6541C29.9334 18.4958 29.8515 18.3512 29.736 18.2359ZM23.4338 25.4819C20.8332 27.4324 17.6163 28.3793 14.3737 28.1488C11.1311 27.9184 8.08039 26.526 5.78173 24.2274C3.48308 21.9287 2.09072 18.8781 1.86028 15.6355C1.62983 12.3929 2.57677 9.17595 4.52724 6.57532C5.9165 4.73331 7.7503 3.27381 9.85709 2.33335C9.41354 4.76962 9.56741 7.27713 10.3055 9.6409C11.0436 12.0047 12.3439 14.1542 14.0949 15.9052C15.8459 17.6563 17.9954 18.9565 20.3592 19.6946C22.723 20.4327 25.2305 20.5866 27.6668 20.143C26.7289 22.2526 25.2709 24.0896 23.4293 25.4819H23.4338Z" fill="#003366"/>
</svg>
