<svg width="32" height="33" viewBox="0 0 32 33" fill="none" xmlns="http://www.w3.org/2000/svg">
<path d="M12.6799 13.52C11.3425 13.52 10.0351 13.1233 8.92323 12.38C7.81133 11.6368 6.94489 10.5804 6.43354 9.34463C5.92219 8.10882 5.7889 6.74909 6.05055 5.43751C6.3122 4.12593 6.95702 2.92143 7.90342 1.97642C8.84983 1.03142 10.0553 0.388383 11.3672 0.128678C12.6792 -0.131028 14.0387 0.00426996 15.2738 0.517452C16.5088 1.03063 17.5639 1.89864 18.3055 3.01163C19.0471 4.12462 19.4419 5.43258 19.4399 6.77C19.4346 8.56032 18.7204 10.2757 17.4535 11.5407C16.1866 12.8057 14.4702 13.5174 12.6799 13.52ZM12.6799 2.01C11.7385 2.01 10.8182 2.28917 10.0354 2.81221C9.25262 3.33524 8.64252 4.07865 8.28225 4.94843C7.92198 5.81821 7.82771 6.77528 8.01138 7.69863C8.19505 8.62198 8.64839 9.47013 9.31409 10.1358C9.97979 10.8015 10.8279 11.2549 11.7513 11.4385C12.6746 11.6222 13.6317 11.5279 14.5015 11.1677C15.3713 10.8074 16.1147 10.1973 16.6377 9.41452C17.1607 8.63174 17.4399 7.71144 17.4399 6.77C17.4399 5.50757 16.9384 4.29685 16.0457 3.40418C15.1531 2.5115 13.9423 2.01 12.6799 2.01Z" fill="#666666"/>
<path d="M14.42 30.39C14.2014 30.1714 14.0329 29.908 13.9258 29.618C13.8188 29.3279 13.7759 29.0182 13.8 28.71H2V22.93C3.4179 21.417 5.13771 20.2187 7.04809 19.4125C8.95848 18.6063 11.0169 18.2102 13.09 18.25H13.81C13.7641 17.9147 13.7962 17.5734 13.9037 17.2525C14.0112 16.9316 14.1913 16.6399 14.43 16.4L14.55 16.29C14.08 16.29 13.55 16.23 13.09 16.23C10.6504 16.1721 8.22842 16.657 5.99917 17.6497C3.76993 18.6424 1.78913 20.118 0.2 21.97C0.0701779 22.1431 0 22.3536 0 22.57V28.71C0 29.2404 0.210714 29.7491 0.585786 30.1242C0.960859 30.4993 1.46957 30.71 2 30.71H14.7L14.42 30.39Z" fill="#666666"/>
<path d="M31.68 22.0299L29.68 21.4199C29.5371 20.9308 29.3426 20.4581 29.1 20.0099L30.1 18.1499C30.1325 18.0755 30.1404 17.9927 30.1224 17.9135C30.1044 17.8343 30.0615 17.763 30 17.7099L28.55 16.2599C28.4952 16.2006 28.422 16.1614 28.3421 16.1487C28.2623 16.136 28.1806 16.1505 28.11 16.1899L26.27 17.1899C25.8169 16.9352 25.3374 16.7307 24.84 16.5799L24.23 14.5799C24.2041 14.5063 24.155 14.4431 24.0901 14.3998C24.0252 14.3565 23.9479 14.3355 23.87 14.3399H21.82C21.7413 14.339 21.6644 14.364 21.6012 14.4109C21.538 14.4579 21.4919 14.5243 21.47 14.5999L20.86 16.5999C20.3592 16.7457 19.8762 16.9469 19.42 17.1999L17.6 16.1999C17.531 16.1613 17.4509 16.1472 17.3728 16.1599C17.2947 16.1726 17.2232 16.2114 17.17 16.2699L15.69 17.7099C15.6351 17.7677 15.5998 17.8413 15.5891 17.9203C15.5783 17.9992 15.5926 18.0796 15.63 18.1499L16.63 19.9699C16.3655 20.4207 16.1541 20.9005 16 21.3999L14 21.9999C13.9244 22.0218 13.858 22.0679 13.811 22.1311C13.764 22.1943 13.7391 22.2712 13.74 22.3499V24.3999C13.7459 24.4722 13.7741 24.5408 13.8207 24.5963C13.8673 24.6518 13.9299 24.6915 14 24.7099L16 25.3199C16.1478 25.8105 16.349 26.2833 16.6 26.7299L15.6 28.6399C15.5619 28.7084 15.5471 28.7874 15.5579 28.865C15.5687 28.9426 15.6046 29.0146 15.66 29.0699L17.11 30.5199C17.1667 30.5764 17.2397 30.6136 17.3187 30.6262C17.3977 30.6388 17.4786 30.6261 17.55 30.5899L19.42 29.5899C19.865 29.8293 20.3344 30.0204 20.82 30.1599L21.42 32.1599C21.4446 32.234 21.4914 32.2986 21.554 32.3451C21.6166 32.3916 21.692 32.4178 21.77 32.4199H23.82C23.8984 32.4192 23.9745 32.3937 24.0374 32.347C24.1003 32.3002 24.1467 32.2347 24.17 32.1599L24.78 30.1099C25.2592 29.9703 25.7219 29.7791 26.16 29.5399L28.05 30.5399C28.1195 30.5769 28.1991 30.59 28.2768 30.5774C28.3545 30.5647 28.4258 30.527 28.48 30.4699L30 29.1099C30.0409 29.0512 30.0628 28.9814 30.0628 28.9099C30.0628 28.8384 30.0409 28.7686 30 28.7099L29 26.8299C29.2428 26.3888 29.4372 25.9228 29.58 25.4399L31.58 24.8299C31.6557 24.8081 31.7221 24.762 31.769 24.6988C31.816 24.6356 31.8409 24.5587 31.84 24.4799V22.3799C31.8492 22.3124 31.839 22.2437 31.8107 22.1818C31.7824 22.1198 31.7371 22.0672 31.68 22.0299ZM22.85 26.7099C22.1886 26.7119 21.5414 26.5175 20.9907 26.1512C20.4399 25.785 20.0102 25.2634 19.7562 24.6527C19.5022 24.042 19.4352 23.3696 19.5637 22.7208C19.6923 22.072 20.0106 21.4759 20.4783 21.0082C20.946 20.5405 21.542 20.2222 22.1909 20.0936C22.8397 19.9651 23.5121 20.0321 24.1228 20.2861C24.7335 20.5401 25.255 20.9698 25.6213 21.5206C25.9875 22.0714 26.182 22.7185 26.18 23.3799C26.1774 24.2623 25.8257 25.1078 25.2018 25.7317C24.5778 26.3556 23.7324 26.7073 22.85 26.7099Z" fill="#666666"/>
</svg>
