<svg width="50" height="51" viewBox="0 0 50 51" fill="none" xmlns="http://www.w3.org/2000/svg">
<path d="M19.9099 21.229C17.8099 21.229 15.757 20.606 14.0112 19.439C12.2653 18.272 10.9048 16.6133 10.1019 14.6728C9.29896 12.7324 9.08967 10.5974 9.50051 8.53792C9.91135 6.47849 10.9238 4.58719 12.4099 3.10336C13.8959 1.61953 15.7887 0.609835 17.8487 0.202048C19.9088 -0.205739 22.0435 0.00670464 23.9827 0.812498C25.922 1.61829 27.5787 2.98122 28.7431 4.72883C29.9076 6.47643 30.5275 8.53018 30.5244 10.6302C30.516 13.4413 29.3946 16.1347 27.4053 18.121C25.4161 20.1073 22.721 21.2248 19.9099 21.229ZM19.9099 3.15609C18.4316 3.15609 16.9866 3.59443 15.7575 4.4157C14.5284 5.23696 13.5704 6.40426 13.0047 7.76997C12.439 9.13568 12.291 10.6385 12.5794 12.0883C12.8678 13.5381 13.5796 14.8699 14.6249 15.9152C15.6702 16.9604 17.0019 17.6723 18.4517 17.9607C19.9016 18.2491 21.4044 18.1011 22.7701 17.5354C24.1358 16.9697 25.3031 16.0117 26.1244 14.7826C26.9456 13.5535 27.384 12.1084 27.384 10.6302C27.384 8.64793 26.5965 6.74686 25.1949 5.3452C23.7932 3.94353 21.8921 3.15609 19.9099 3.15609Z" fill="white"/>
<path d="M22.6421 47.718C22.299 47.3747 22.0342 46.9612 21.8662 46.5058C21.6981 46.0504 21.6307 45.564 21.6686 45.0801H3.14038V36.0044C5.36676 33.6288 8.06717 31.7471 11.0668 30.4813C14.0665 29.2154 17.2986 28.5935 20.5538 28.6559H21.6843C21.6122 28.1295 21.6626 27.5935 21.8314 27.0897C22.0003 26.5859 22.2831 26.1278 22.6578 25.7511L22.8463 25.5783C22.1083 25.5783 21.2761 25.4841 20.5538 25.4841C16.7231 25.3932 12.9202 26.1546 9.41984 27.7133C5.9195 29.2721 2.80927 31.5891 0.314038 34.497C0.110193 34.7688 0 35.0994 0 35.4391V45.0801C0 45.913 0.33086 46.7117 0.919795 47.3007C1.50873 47.8896 2.3075 48.2205 3.14038 48.2205H23.0818L22.6421 47.718Z" fill="white"/>
<path d="M49.7436 34.5913L46.6032 33.6334C46.3788 32.8653 46.0735 32.1232 45.6925 31.4195L47.2627 28.4989C47.3138 28.3821 47.3261 28.252 47.2979 28.1277C47.2696 28.0033 47.2023 27.8913 47.1057 27.808L44.8289 25.5313C44.7428 25.4381 44.6278 25.3765 44.5025 25.3566C44.3772 25.3367 44.2488 25.3595 44.138 25.4214L41.2489 26.9915C40.5375 26.5916 39.7846 26.2704 39.0035 26.0337L38.0457 22.8933C38.0051 22.7778 37.928 22.6785 37.826 22.6105C37.7241 22.5426 37.6028 22.5096 37.4804 22.5165H34.2616C34.1379 22.5151 34.0172 22.5542 33.9179 22.628C33.8187 22.7017 33.7463 22.806 33.712 22.9248L32.7542 26.0651C31.9677 26.2939 31.2093 26.6099 30.4931 27.0072L27.6354 25.4371C27.527 25.3764 27.4012 25.3542 27.2786 25.3742C27.156 25.3941 27.0437 25.455 26.9602 25.547L24.6363 27.808C24.5501 27.8988 24.4947 28.0143 24.4778 28.1383C24.4609 28.2623 24.4834 28.3884 24.5421 28.4989L26.1123 31.3567C25.697 32.0644 25.365 32.8179 25.1231 33.602L21.9827 34.5442C21.8639 34.5785 21.7596 34.6508 21.6859 34.7501C21.6122 34.8494 21.573 34.9701 21.5744 35.0937V38.3126C21.5837 38.426 21.628 38.5338 21.7011 38.621C21.7742 38.7081 21.8726 38.7705 21.9827 38.7994L25.1231 39.7572C25.3551 40.5274 25.6711 41.2699 26.0652 41.9711L24.495 44.9702C24.4351 45.0777 24.4118 45.2017 24.4288 45.3236C24.4458 45.4455 24.5021 45.5584 24.5892 45.6454L26.866 47.9222C26.9549 48.0109 27.0696 48.0693 27.1936 48.089C27.3177 48.1087 27.4448 48.0888 27.5568 48.0321L30.4931 46.4619C31.1919 46.8377 31.9288 47.1377 32.6914 47.3569L33.6335 50.4973C33.6721 50.6135 33.7456 50.715 33.8439 50.7881C33.9422 50.8611 34.0606 50.9021 34.183 50.9055H37.4019C37.525 50.9044 37.6445 50.8643 37.7432 50.7909C37.842 50.7176 37.9149 50.6147 37.9515 50.4973L38.9093 47.2784C39.6618 47.0591 40.3883 46.759 41.0762 46.3834L44.0438 47.9536C44.1529 48.0115 44.278 48.0322 44.3999 48.0123C44.5219 47.9925 44.6339 47.9332 44.719 47.8437L47.1057 45.7082C47.1699 45.616 47.2043 45.5065 47.2043 45.3942C47.2043 45.2819 47.1699 45.1723 47.1057 45.0801L45.5355 42.1282C45.9167 41.4355 46.222 40.7038 46.4462 39.9456L49.5866 38.9878C49.7054 38.9534 49.8096 38.8811 49.8834 38.7818C49.9571 38.6826 49.9963 38.5619 49.9949 38.4382V35.1408C50.0093 35.0348 49.9933 34.9269 49.9488 34.8297C49.9044 34.7324 49.8332 34.6497 49.7436 34.5913ZM35.8788 41.9397C34.8403 41.9428 33.8241 41.6375 32.9593 41.0624C32.0945 40.4874 31.4198 39.6685 31.021 38.7095C30.6221 37.7506 30.5169 36.6948 30.7187 35.676C30.9206 34.6573 31.4204 33.7214 32.1548 32.987C32.8892 32.2526 33.8251 31.7528 34.8439 31.5509C35.8627 31.3491 36.9184 31.4542 37.8774 31.8531C38.8363 32.252 39.6552 32.9266 40.2303 33.7915C40.8053 34.6563 41.1107 35.6724 41.1076 36.711C41.1034 38.0965 40.5512 39.424 39.5715 40.4037C38.5919 41.3834 37.2643 41.9356 35.8788 41.9397Z" fill="white"/>
</svg>
