<svg width="27" height="27" viewBox="0 0 27 27" fill="none" xmlns="http://www.w3.org/2000/svg">
<path d="M5.8913 15.1304H21.1087M13.5 15.1304V26.5435M7.52174 12.413V7.52174H6.24783C5.52395 7.52174 4.82065 7.76261 4.24876 8.20639C3.67687 8.65017 3.26889 9.27162 3.08913 9.97283L1 18.1196V18.3913H8.6087V20.0217C8.6087 21.6522 8.6087 22.7391 9.42391 24.3696C9.42391 24.3696 10.2391 26 11.3261 26M19.4783 12.413V7.52174H20.7522C21.4761 7.52174 22.1793 7.76261 22.7512 8.20639C23.3231 8.65017 23.7311 9.27162 23.9109 9.97283L26 18.1196V18.3913H18.3913V20.0217C18.3913 21.6522 18.3913 22.7391 17.5761 24.3696C17.5761 24.3696 16.7609 26 15.6739 26M7.3587 5.34783C7.3587 5.34783 5.61957 4.26087 5.61957 2.90217C5.61957 2.39826 5.81974 1.91499 6.17606 1.55867C6.53238 1.20235 7.01565 1.00217 7.51957 1.00217C8.02348 1.00217 8.50675 1.20235 8.86307 1.55867C9.21939 1.91499 9.41957 2.39826 9.41957 2.90217C9.41957 4.26087 7.68478 5.34783 7.68478 5.34783H7.3587ZM19.6413 5.34783C19.6413 5.34783 21.3804 4.26087 21.3804 2.90217C21.3804 2.39769 21.18 1.91386 20.8233 1.55713C20.4666 1.20041 19.9827 1 19.4783 1C18.4283 1 17.5804 1.85217 17.5804 2.90217C17.5804 4.26087 19.3152 5.34783 19.3152 5.34783H19.6413Z" stroke="#666666" stroke-width="2"/>
</svg>
